<svg xmlns="http://www.w3.org/2000/svg" viewBox="0 0 300 80" width="300" height="80" role="img" aria-labelledby="gc2-logo-title">
  <title id="gc2-logo-title">git-cleaner</title>
  <defs>
    <linearGradient id="gc-grad" x1="0%" y1="0%" x2="100%" y2="100%">
      <stop offset="0%" stop-color="#4F46E5"/>
      <stop offset="100%" stop-color="#7C3AED"/>
    </linearGradient>
    <linearGradient id="accent-grad" x1="0%" y1="0%" x2="100%" y2="100%">
      <stop offset="0%" stop-color="#10B981"/>
      <stop offset="100%" stop-color="#059669"/>
    </linearGradient>
  </defs>

  <!-- Rounded square badge -->
  <rect x="4" y="8" width="64" height="64" rx="16" fill="url(#gc-grad)"/>

  <!-- Stylized "g" — descender forms broom handle -->
  <path d="M24,30 Q24,22 32,22 Q40,22 40,30 L40,42 Q40,52 32,54 Q26,55.5 22,50" stroke="#FFFFFF" stroke-width="3.5" fill="none" stroke-linecap="round" stroke-linejoin="round"/>

  <!-- Stylized "c" — open curve, like a sweeping motion -->
  <path d="M52,30 Q50,22 42,22 Q34,22 34,34 L34,42 Q34,54 42,54 Q50,54 52,48" stroke="#FFFFFF" stroke-width="3.5" fill="none" stroke-linecap="round" stroke-linejoin="round"/>

  <!-- Clean accent dot (the "sparkle" — something being cleaned) -->
  <circle cx="38" cy="28" r="2.5" fill="url(#accent-grad)"/>

  <!-- Text -->
  <text x="82" y="42" font-family="system-ui, -apple-system, sans-serif" font-size="24" font-weight="700" fill="#1F2937" letter-spacing="-0.3">git-cleaner</text>
  <text x="82" y="56" font-family="system-ui, -apple-system, sans-serif" font-size="10" fill="#6B7280" letter-spacing="2.5">MAINTENANCE &amp; CLEANUP</text>
</svg>
