<svg xmlns="http://www.w3.org/2000/svg" viewBox="0 0 320 80" width="320" height="80" role="img" aria-labelledby="gc-logo-title">
  <title id="gc-logo-title">git-cleaner</title>
  <defs>
    <linearGradient id="broom-grad" x1="0%" y1="0%" x2="100%" y2="100%">
      <stop offset="0%" stop-color="#4F46E5"/>
      <stop offset="100%" stop-color="#6366F1"/>
    </linearGradient>
    <linearGradient id="sweep-grad" x1="0%" y1="0%" x2="100%" y2="100%">
      <stop offset="0%" stop-color="#10B981"/>
      <stop offset="100%" stop-color="#34D399"/>
    </linearGradient>
    <linearGradient id="bg-grad" x1="0%" y1="0%" x2="100%" y2="100%">
      <stop offset="0%" stop-color="#EEF2FF"/>
      <stop offset="100%" stop-color="#E0E7FF"/>
    </linearGradient>
  </defs>

  <!-- Circular badge background -->
  <circle cx="36" cy="40" r="32" fill="url(#bg-grad)"/>
  <circle cx="36" cy="40" r="32" fill="none" stroke="#4F46E5" stroke-width="2"/>

  <!-- Broom handle -->
  <line x1="14" y1="58" x2="44" y2="18" stroke="url(#broom-grad)" stroke-width="3.5" stroke-linecap="round"/>

  <!-- Broom bristles (fan shape) -->
  <line x1="42" y1="22" x2="52" y2="12" stroke="url(#sweep-grad)" stroke-width="3" stroke-linecap="round"/>
  <line x1="44" y1="26" x2="56" y2="18" stroke="url(#sweep-grad)" stroke-width="3" stroke-linecap="round"/>
  <line x1="44" y1="30" x2="58" y2="24" stroke="url(#sweep-grad)" stroke-width="3" stroke-linecap="round"/>
  <line x1="44" y1="34" x2="58" y2="30" stroke="url(#sweep-grad)" stroke-width="3" stroke-linecap="round"/>
  <line x1="42" y1="38" x2="56" y2="36" stroke="url(#sweep-grad)" stroke-width="3" stroke-linecap="round"/>
  <line x1="40" y1="42" x2="52" y2="42" stroke="url(#sweep-grad)" stroke-width="3" stroke-linecap="round"/>

  <!-- Git branch being swept (dot + branch line) -->
  <circle cx="50" cy="44" r="2" fill="#10B981" opacity="0.5"/>
  <path d="M48,48 Q52,44 52,36" stroke="#10B981" stroke-width="1.5" fill="none" opacity="0.4" stroke-linecap="round"/>
  <circle cx="52" cy="36" r="1.5" fill="#10B981" opacity="0.3"/>

  <!-- Text -->
  <text x="80" y="38" font-family="system-ui, -apple-system, sans-serif" font-size="24" font-weight="700" fill="#1F2937" letter-spacing="-0.3">git-cleaner</text>
  <text x="80" y="54" font-family="system-ui, -apple-system, sans-serif" font-size="11" fill="#6B7280" letter-spacing="2.5">MAINTENANCE &amp; CLEANUP</text>
</svg>
