<svg xmlns="http://www.w3.org/2000/svg" viewBox="0 0 400 120" width="400" height="120" role="img" aria-labelledby="readme-logo-title">
  <title id="readme-logo-title">git-cleaner</title>
  <defs>
    <linearGradient id="bg" x1="0%" y1="0%" x2="100%" y2="100%">
      <stop offset="0%" stop-color="#EEF2FF"/>
      <stop offset="100%" stop-color="#E0E7FF"/>
    </linearGradient>
    <linearGradient id="handle" x1="0%" y1="0%" x2="100%" y2="100%">
      <stop offset="0%" stop-color="#4F46E5"/>
      <stop offset="100%" stop-color="#6366F1"/>
    </linearGradient>
    <linearGradient id="bristles" x1="0%" y1="0%" x2="100%" y2="100%">
      <stop offset="0%" stop-color="#10B981"/>
      <stop offset="100%" stop-color="#34D399"/>
    </linearGradient>
  </defs>

  <!-- Logo badge -->
  <circle cx="52" cy="60" r="44" fill="url(#bg)"/>
  <circle cx="52" cy="60" r="44" fill="none" stroke="#4F46E5" stroke-width="2.5"/>

  <!-- Broom handle -->
  <line x1="26" y1="86" x2="64" y2="34" stroke="url(#handle)" stroke-width="4.5" stroke-linecap="round"/>

  <!-- Broom bristles -->
  <line x1="62" y1="38" x2="74" y2="26" stroke="url(#bristles)" stroke-width="3.5" stroke-linecap="round"/>
  <line x1="64" y1="42" x2="78" y2="32" stroke="url(#bristles)" stroke-width="3.5" stroke-linecap="round"/>
  <line x1="64" y1="46" x2="80" y2="38" stroke="url(#bristles)" stroke-width="3.5" stroke-linecap="round"/>
  <line x1="64" y1="50" x2="80" y2="44" stroke="url(#bristles)" stroke-width="3.5" stroke-linecap="round"/>
  <line x1="62" y1="54" x2="78" y2="50" stroke="url(#bristles)" stroke-width="3.5" stroke-linecap="round"/>
  <line x1="60" y1="58" x2="74" y2="56" stroke="url(#bristles)" stroke-width="3.5" stroke-linecap="round"/>

  <!-- Swept git branch -->
  <circle cx="72" cy="60" r="2.5" fill="#10B981" opacity="0.5"/>
  <path d="M68,64 Q72,60 72,50" stroke="#10B981" stroke-width="1.5" fill="none" opacity="0.4" stroke-linecap="round"/>

  <!-- Wordmark -->
  <text x="114" y="60" font-family="system-ui, -apple-system, sans-serif" font-size="34" font-weight="700" fill="#1F2937" letter-spacing="-0.5">git-cleaner</text>
  <text x="114" y="80" font-family="system-ui, -apple-system, sans-serif" font-size="12" fill="#6B7280" letter-spacing="3">MAINTENANCE &amp; CLEANUP</text>
</svg>
